<svg xmlns="http://www.w3.org/2000/svg" viewBox="0 0 32 32">
  <rect width="32" height="32" rx="6" fill="#2c1810"/>
  <!-- Serif italic "B" as path -->
  <path d="M11 7.5h5.5c1.8 0 3.2.4 4.1 1.2.9.8 1.4 1.8 1.4 3.1 0 1-.3 1.9-.9 2.6-.6.7-1.4 1.1-2.4 1.3v.1c1.2.2 2.2.7 2.9 1.4.7.8 1.1 1.8 1.1 3 0 1.5-.5 2.7-1.6 3.6-1.1.9-2.6 1.3-4.5 1.3H10L11 7.5zm1.8 7.7h3.8c1.2 0 2.1-.3 2.8-.8.6-.5 1-1.3 1-2.2 0-.9-.3-1.5-.9-2-.6-.5-1.5-.7-2.7-.7h-3.5l-.5 5.7zm-1 8.3h4.2c1.3 0 2.3-.3 3-.9.7-.6 1.1-1.5 1.1-2.6 0-1-.4-1.7-1.1-2.2-.7-.5-1.7-.8-3-.8h-3.6l-.6 6.5z" fill="#d4a574"/>
</svg>
